<?xml version="1.0" encoding="UTF-8" standalone="no"?>
<!DOCTYPE svg PUBLIC "-//W3C//DTD SVG 1.1//EN" "http://www.w3.org/Graphics/SVG/1.1/DTD/svg11.dtd">
<svg width="100%" height="100%" viewBox="0 0 456 456" version="1.1" xmlns="http://www.w3.org/2000/svg" xmlns:xlink="http://www.w3.org/1999/xlink" xml:space="preserve" xmlns:serif="http://www.serif.com/" style="fill-rule:evenodd;clip-rule:evenodd;stroke-linejoin:round;stroke-miterlimit:1.41421;">
    <g transform="matrix(1,0,0,1,-22,-22)">
        <g id="Avatar9" transform="matrix(1.92308,0,0,1.92308,21.1583,21.23)">
            <path d="M237.469,37.454C237.469,17.054 220.907,0.492 200.507,0.492L37.489,0.492C17.089,0.492 0.526,17.054 0.526,37.454L0.526,200.467C0.526,220.867 17.089,237.429 37.489,237.429L200.507,237.429C220.907,237.429 237.469,220.867 237.469,200.467L237.469,37.454Z" style="fill:url(#_Linear1);"/>
            <clipPath id="_clip2">
                <path d="M237.469,37.454C237.469,17.054 220.907,0.492 200.507,0.492L37.489,0.492C17.089,0.492 0.526,17.054 0.526,37.454L0.526,200.467C0.526,220.867 17.089,237.429 37.489,237.429L200.507,237.429C220.907,237.429 237.469,220.867 237.469,200.467L237.469,37.454Z"/>
            </clipPath>
            <g clip-path="url(#_clip2)">
                <g transform="matrix(1,0,0,1,-2.81043,-8.60956)">
                    <path d="M186.485,183.512C193.115,196.133 214.203,199.107 214.203,199.107C214.203,199.107 168.672,209.71 160.899,211.158C133.136,216.09 99.16,207.509 99.16,207.509L91.794,150.999L175.083,153.26C175.083,153.26 179.855,170.892 186.485,183.512Z" style="fill:rgb(72,50,43);fill-rule:nonzero;"/>
                </g>
                <g transform="matrix(1,0,0,1,-2.81043,-8.60956)">
                    <path d="M139.955,160.606C139.955,160.606 140.129,180.87 138.255,187.731C136.381,194.591 98.91,194.367 98.91,194.367C98.91,194.367 114.772,219.979 155.63,224.274C176.633,226.482 200.918,196.352 200.918,196.352C200.918,196.352 164.362,196.727 159.303,188.449C154.245,180.17 155.961,169.697 155.961,169.697L139.955,160.606Z" style="fill:rgb(240,192,160);fill-rule:nonzero;"/>
                </g>
                <g transform="matrix(1,0,0,1,-2.81043,-8.60956)">
                    <path d="M200.839,196.341C200.839,196.341 165.406,196.727 160.347,188.449C155.289,180.17 157.005,169.697 157.005,169.697L153.862,168.69C153.618,174.712 153.792,184.931 157.215,190.534C162.274,198.812 195.625,196.657 195.625,196.657L200.839,196.341ZM130.544,191.481C123.159,194.426 98.026,193.382 98.026,193.382C98.026,193.382 101.073,195.976 103.126,197.338C109.871,197.338 127.775,195.021 130.544,191.481ZM127.45,160.257C127.45,160.257 127.711,161.113 128.115,162.54L135.862,162.941L127.45,160.257Z" style="fill:rgb(255,244,212);fill-rule:nonzero;"/>
                </g>
                <g transform="matrix(1,0,0,1,-2.81043,-8.60956)">
                    <path d="M141.654,166.822C141.654,166.822 138.898,183.145 138.255,186.977C137.612,190.81 123.443,192.914 123.443,192.914C123.443,192.914 130.844,198.314 144.499,192.735C150.827,190.15 148.27,171.249 148.27,171.249L141.654,166.822Z" style="fill:rgb(224,168,125);fill-rule:nonzero;"/>
                </g>
                <g transform="matrix(1,0,0,1,-2.81043,-8.60956)">
                    <path d="M181.067,119.388C181.067,119.388 183.719,139.542 190.193,152.69C196.661,165.826 208.536,174.06 208.536,174.06C208.536,174.06 187.293,157.054 190.572,130.153C193.182,108.74 181.067,119.388 181.067,119.388Z" style="fill:rgb(72,50,43);fill-rule:nonzero;"/>
                </g>
                <g transform="matrix(1,0,0,1,-2.81043,-8.60956)">
                    <path d="M46.197,88.501C46.197,88.501 55.537,101.613 71.925,112.92C88.297,124.218 101.192,142.712 105.597,169.882C110.019,197.163 109.831,213.374 128.283,222.809C116.087,214.838 115.565,222.794 105.202,188.062C97.882,157.945 88.46,130.194 72.551,117.841C56.631,105.478 44.397,93.368 46.197,88.501Z" style="fill:rgb(72,50,43);fill-rule:nonzero;"/>
                </g>
                <g transform="matrix(1,0,0,1,-2.81043,-8.60956)">
                    <path d="M73.432,35.025C73.432,35.025 53.546,31.789 39.544,39.861C25.22,48.118 16.607,70.19 16.607,70.19C16.607,70.19 26.407,49.913 63.626,44.452C97.881,39.427 73.432,35.025 73.432,35.025Z" style="fill:rgb(72,50,43);fill-rule:nonzero;"/>
                </g>
                <g transform="matrix(1,0,0,1,-2.81043,-8.60956)">
                    <path d="M95.076,34.659C77.854,26.426 25.961,25.616 22.109,72.494C20.169,96.092 43.314,116.551 35.382,131.244C27.449,145.936 16.117,145.936 16.117,145.936C16.117,145.936 37.648,162.89 58.045,139.155C78.443,115.421 95.076,34.659 95.076,34.659Z" style="fill:rgb(72,50,43);fill-rule:nonzero;"/>
                </g>
                <g transform="matrix(1,0,0,1,-2.81043,-8.60956)">
                    <path d="M59.745,40.263C59.745,40.263 40.643,45.274 35.441,55.424C27.725,70.481 29.716,75.864 29.716,75.864C29.716,75.864 40.809,45.963 59.745,40.263Z" style="fill:rgb(114,79,66);fill-rule:nonzero;"/>
                </g>
                <g transform="matrix(1,0,0,1,-2.81043,-8.60956)">
                    <path d="M65.411,138.59C65.411,138.59 62.36,150.56 52.38,156.108C42.399,161.657 39.348,162.324 39.348,162.324C39.348,162.324 51.757,155.444 52.38,143.111C53.003,130.778 65.411,138.59 65.411,138.59Z" style="fill:rgb(72,50,43);fill-rule:nonzero;"/>
                </g>
                <g id="Ellipse" transform="matrix(1,0,0,1,-2.81043,-8.60956)">
                    <path d="M179.05,103.531C179.05,96.04 182.982,89.968 187.832,89.968C192.682,89.968 196.614,96.04 196.614,103.531C196.614,111.021 192.682,117.093 187.832,117.093C182.982,117.093 179.05,111.021 179.05,103.531Z" style="fill:rgb(245,201,170);fill-rule:nonzero;"/>
                </g>
                <g transform="matrix(1,0,0,1,-2.81043,-8.60956)">
                    <path d="M205.679,198.297C212.779,207.139 223.503,238.613 223.707,239.493C223.91,240.373 175.13,249.005 143.689,249.787C112.247,250.569 64.578,254.668 64.578,254.668C64.578,254.668 78.934,199.46 92.126,196.083C105.317,192.706 108.811,214.264 149.357,211.164C174.276,209.258 199.227,190.262 205.679,198.297Z" style="fill:rgb(35,107,141);fill-rule:nonzero;"/>
                    <path d="M111.455,241.636C106.409,240.166 105.114,221.765 112.993,219.997C120.872,218.231 141.087,217.827 165.723,220.939C193.766,224.482 205.349,238.053 209.289,251.305C213.229,264.558 207.286,255.354 207.286,255.354C207.286,255.354 153.916,254.005 111.455,241.636Z" style="fill:rgb(163,217,238);fill-opacity:0.4588;fill-rule:nonzero;"/>
                    <path d="M124.812,231.788C124.812,231.788 142.321,230.021 159.393,230.462C176.465,230.904 185.22,232.23 185.22,232.23C185.22,232.23 134.442,233.997 124.812,231.788Z" style="fill:rgb(35,107,141);fill-rule:nonzero;"/>
                </g>
                <g transform="matrix(1,0,0,1,-2.81043,-8.60956)">
                    <path d="M72.799,59.309C72.799,59.309 64.778,52.489 75.105,69.096C85.432,85.702 104.095,113.584 100.968,144.592C97.841,175.596 104.996,237.471 139.365,222.834C121.243,232.813 99.717,241.669 86.628,202.174C85.414,206.105 84.587,220.883 100.888,231.907C94.437,228.41 83.789,218.209 83.715,205.433C79.619,213.526 71.637,219.918 63.128,223.265C70.677,217.652 93.123,206.577 73.652,174.796C51,144.859 17.007,115.056 35.427,69.177C42.549,57.633 44.135,55.366 51.728,51.053C54.435,49.306 75.267,61.443 72.799,59.309Z" style="fill:rgb(72,50,43);fill-rule:nonzero;"/>
                </g>
                <g id="Ellipse2" transform="matrix(1,0,0,1,-2.81043,-8.60956)">
                    <path d="M78.043,130.144C69.62,96.501 87.261,63.23 117.432,55.834C147.589,48.442 178.846,69.702 187.26,103.316C195.674,136.93 178.066,170.192 147.917,177.613C117.754,185.037 86.465,163.787 78.043,130.144Z" style="fill:rgb(196,145,121);fill-rule:nonzero;"/>
                </g>
                <g transform="matrix(1,0,0,1,-2.81043,-8.60956)">
                    <path d="M90.661,174.168C90.661,174.168 93.817,192.264 101.993,205.249C110.169,218.234 121.257,223.897 121.257,223.897C121.257,223.897 93.715,216.316 90.661,174.168Z" style="fill:rgb(114,79,66);fill-rule:nonzero;"/>
                </g>
                <g transform="matrix(1,0,0,1,-2.81043,-8.60956)">
                    <path d="M72.53,140.262C72.53,140.262 89.574,159.853 91.227,170.778C92.881,181.703 93.494,189.426 93.494,189.426C93.494,189.426 89.685,158.732 72.53,140.262Z" style="fill:rgb(114,79,66);fill-rule:nonzero;"/>
                </g>
                <g transform="matrix(1,0,0,1,-2.81043,-8.60956)">
                    <path d="M188.79,103.339C185.663,134.344 192.818,196.218 227.187,181.581C209.065,191.561 187.539,200.416 174.45,160.921C173.236,164.853 172.409,179.63 188.711,190.655C182.26,187.158 171.612,176.957 171.538,164.18C167.441,172.274 180.945,165.325 161.475,133.543C138.823,103.606 191.917,72.332 188.79,103.339Z" style="fill:rgb(72,50,43);fill-rule:nonzero;"/>
                </g>
                <g transform="matrix(1,0,0,1,-2.81043,-8.60956)">
                    <path d="M186.415,135.176C186.415,135.176 187.285,155.649 194.348,168.517C201.41,181.386 211.345,184.905 211.345,184.905C211.345,184.905 181.371,178.283 186.415,135.176Z" style="fill:rgb(114,79,66);fill-rule:nonzero;"/>
                </g>
                <g transform="matrix(1,0,0,1,-2.81043,-8.60956)">
                    <path d="M180.183,165.127C180.183,165.127 180.362,168.68 185.849,174.168C191.335,179.657 198.314,183.21 198.314,183.21C198.314,183.21 180.458,181.575 180.183,165.127Z" style="fill:rgb(114,79,66);fill-rule:nonzero;"/>
                </g>
                <g id="Ellipse3" transform="matrix(1,0,0,1,-2.81043,-8.60956)">
                    <path d="M88.666,134.073C82.74,128.255 74.921,126.656 71.15,130.454C67.377,134.256 69.036,142.075 74.907,147.964C80.834,153.909 88.784,155.625 92.612,151.75C96.438,147.879 94.647,139.944 88.666,134.073Z" style="fill:rgb(237,188,153);fill-rule:nonzero;"/>
                </g>
                <g transform="matrix(1,0,0,1,-2.81043,-8.60956)">
                    <path d="M189.16,117.01C188.556,115.626 188.526,114.199 189.061,112.738C189.51,111.317 190.439,110.286 191.86,109.641C193.18,109.042 194.541,109.03 195.943,109.598C197.339,110.164 198.333,111.132 198.926,112.5C199.559,113.96 199.615,115.412 199.095,116.861C198.573,118.313 197.658,119.346 196.348,119.961C194.94,120.623 193.58,120.656 192.253,120.06C190.839,119.502 189.804,118.487 189.16,117.01Z" style="fill:rgb(94,157,186);fill-rule:nonzero;"/>
                    <path d="M192.307,115.061C191.507,113.222 191.99,111.897 193.755,111.09C195.509,110.289 196.78,110.805 197.573,112.632C197.889,113.362 197.906,114.123 197.622,114.914C197.335,115.705 196.845,116.263 196.144,116.588C195.354,116.956 194.623,116.966 193.942,116.622C193.175,116.316 192.627,115.795 192.307,115.061Z" style="fill:rgb(239,239,239);fill-rule:nonzero;"/>
                </g>
                <g transform="matrix(1,0,0,1,-2.81043,-8.60956)">
                    <path d="M83.628,158.84C83.025,157.457 82.994,156.03 83.529,154.569C83.979,153.148 84.908,152.117 86.328,151.472C87.649,150.873 89.01,150.86 90.411,151.429C91.808,151.994 92.802,152.962 93.395,154.33C94.028,155.79 94.084,157.242 93.563,158.691C93.041,160.144 92.126,161.176 90.817,161.792C89.408,162.454 88.048,162.487 86.721,161.891C85.307,161.332 84.273,160.317 83.628,158.84Z" style="fill:rgb(94,157,186);fill-rule:nonzero;"/>
                    <path d="M86.776,156.891C85.975,155.053 86.458,153.727 88.223,152.921C89.977,152.12 91.249,152.636 92.041,154.462C92.358,155.192 92.375,155.954 92.091,156.744C91.803,157.536 91.314,158.093 90.613,158.419C89.822,158.787 89.091,158.797 88.411,158.452C87.643,158.146 87.096,157.625 86.776,156.891Z" style="fill:rgb(239,239,239);fill-rule:nonzero;"/>
                </g>
                <g transform="matrix(1,0,0,1,-2.81043,-8.60956)">
                    <path d="M45.9,115.963C45.9,115.963 45.191,125.081 52.132,136.307C59.074,147.533 69.697,157.215 69.697,157.215C69.697,157.215 53.445,131.865 45.9,115.963Z" style="fill:rgb(114,79,66);fill-rule:nonzero;"/>
                </g>
                <g transform="matrix(1,0,0,1,-2.81043,-8.60956)">
                    <path d="M86.695,85.447C86.695,85.447 73.663,106.921 64.597,127.265C55.532,147.608 66.411,189.565 66.411,189.565C66.411,189.565 28.902,102.966 86.695,85.447Z" style="fill:rgb(72,50,43);fill-rule:nonzero;"/>
                </g>
                <g id="Ellipse4" transform="matrix(1,0,0,1,-2.81043,-8.60956)">
                    <path d="M82.009,130.144C73.587,96.501 91.227,63.23 121.398,55.834C151.555,48.442 182.812,69.702 191.226,103.316C199.64,136.93 182.032,170.192 151.883,177.613C121.72,185.037 90.431,163.787 82.009,130.144Z" style="fill:rgb(237,188,153);fill-rule:nonzero;"/>
                </g>
                <g transform="matrix(1,0,0,1,-2.81043,-8.60956)">
                    <path d="M167.823,169.297C188.227,156.165 198.649,129.01 191.793,101.621C183.378,68.006 152.122,46.746 121.965,54.139C114.717,55.916 108.19,59.185 102.576,63.595C107.227,60.602 112.397,58.337 117.998,56.964C148.155,49.572 179.412,70.832 187.827,104.447C194.223,130 185.58,155.349 167.823,169.297Z" style="fill:rgb(255,244,212);fill-rule:nonzero;"/>
                </g>
                <g id="Ellipse5" transform="matrix(1,0,0,1,-2.81043,-8.60956)">
                    <path d="M99.873,152.186C85.653,129.957 90.697,97.806 111.207,80.33C131.783,62.797 160.1,66.686 174.389,89.059C188.673,111.423 183.462,143.683 162.816,161.071C142.238,178.403 114.087,174.405 99.873,152.186Z" style="fill:rgb(245,201,174);fill-rule:nonzero;"/>
                </g>
                <g id="Ellipse6" transform="matrix(1,0,0,1,-2.81043,-8.60956)">
                    <path d="M143.921,170.495C143.921,168.466 146.331,166.822 149.303,166.822C152.276,166.822 154.686,168.466 154.686,170.495C154.686,172.524 152.276,174.168 149.303,174.168C146.331,174.168 143.921,172.524 143.921,170.495Z" style="fill:rgb(249,225,192);fill-rule:nonzero;"/>
                </g>
                <g transform="matrix(1,0,0,1,-2.81043,-8.60956)">
                    <path d="M102.559,79.232C102.559,79.232 144.234,90.381 159.785,92.04C175.337,93.7 188.871,92.794 188.871,92.794L177.35,77.536L102.559,79.232Z" style="fill-opacity:0.2706;fill-rule:nonzero;"/>
                </g>
                <g transform="matrix(1,0,0,1,-2.81043,-8.60956)">
                    <path d="M163.253,141.637C163.253,141.637 161.27,139.243 157.354,139.774C153.969,140.233 134.015,148.639 134.015,148.639C134.015,148.639 145.118,155.048 163.253,141.637Z" style="fill:rgb(199,75,104);fill-rule:nonzero;"/>
                    <path d="M127.91,145.246C127.91,145.246 131.402,150.905 128.809,152.805C126.216,154.704 126.684,146.32 127.91,145.246Z" style="fill:rgb(91,55,38);fill-rule:nonzero;"/>
                    <path d="M130.539,151.646C130.539,151.646 141.924,166.772 151.759,161.899C161.593,157.027 163.957,143.508 163.957,143.508C163.957,143.508 151.164,156.045 130.539,151.646Z" style="fill:rgb(199,75,104);fill-rule:nonzero;"/>
                    <path d="M165.152,141.033C161.4,140.897 159.27,146.64 145.418,149.299C139.89,150.36 129.489,148.374 129.489,148.374L128.183,151.186C128.183,151.186 137.926,152.9 144.737,152.742C151.549,152.584 170.238,141.219 165.152,141.033Z" style="fill:rgb(91,55,38);fill-rule:nonzero;"/>
                </g>
                <g transform="matrix(1,0,0,1,-2.81043,-8.60956)">
                    <path d="M162.052,146.479C161.571,146.179 153.165,151.101 150.72,152.129C148.275,153.158 144.612,153.322 145.054,156.65C145.496,159.979 149.855,160.997 153.553,159.476C157.251,157.954 163.533,147.401 162.052,146.479Z" style="fill:rgb(252,171,197);fill-opacity:0.3804;fill-rule:nonzero;"/>
                </g>
                <g id="Ellipse7" transform="matrix(1,0,0,1,-2.81043,-8.60956)">
                    <path d="M153.154,154.84C152.631,154.063 153.471,152.586 155.029,151.54C156.587,150.495 158.273,150.277 158.796,151.054C159.318,151.83 158.478,153.308 156.92,154.353C155.362,155.399 153.676,155.617 153.154,154.84Z" style="fill:white;fill-rule:nonzero;"/>
                </g>
                <g id="Ellipse8" transform="matrix(1,0,0,1,-2.81043,-8.60956)">
                    <path d="M138.058,132.307C137.093,130.623 140.303,131.791 143.432,130.386C146.562,128.982 148.425,125.538 149.39,127.221C150.354,128.905 148.6,131.408 145.47,132.813C142.341,134.217 139.022,133.991 138.058,132.307Z" style="fill:rgb(190,134,103);fill-rule:nonzero;"/>
                </g>
                <g id="Ellipse9" transform="matrix(1,0,0,1,-2.81043,-8.60956)">
                    <path d="M99.739,148.486C97.858,144.263 102.147,138.234 109.438,134.985C116.852,131.681 124.488,132.524 126.37,136.903C128.243,141.263 123.653,147.373 116.238,150.52C108.947,153.614 101.613,152.69 99.739,148.486Z" style="fill:rgb(255,163,178);fill-opacity:0.5686;fill-rule:nonzero;"/>
                </g>
                <g id="Ellipse10" transform="matrix(1,0,0,1,-2.81043,-8.60956)">
                    <path d="M157.492,124.635C156.41,120.14 161.623,114.868 169.255,112.847C177.017,110.79 184.265,112.882 185.32,117.532C186.37,122.162 180.851,127.465 173.117,129.365C165.512,131.234 158.57,129.111 157.492,124.635Z" style="fill:rgb(255,163,178);fill-opacity:0.5686;fill-rule:nonzero;"/>
                </g>
                <g transform="matrix(1,0,0,1,-2.81043,-8.60956)">
                    <path d="M145.196,39.739C145.196,39.739 146.748,64.459 165.719,68.558C184.774,72.675 198.766,59.264 198.766,59.264C198.766,59.264 169.951,74.645 147.068,38.167C144.808,34.565 145.196,39.739 145.196,39.739Z" style="fill:rgb(72,50,43);fill-rule:nonzero;"/>
                </g>
                <g transform="matrix(1,0,0,1,-2.81043,-8.60956)">
                    <path d="M74.652,137.356L76.356,135.408C77.995,135.161 80.191,137.595 82.943,142.686C84.951,146.403 85.202,148.001 83.699,147.485C81.935,146.91 80.996,145.932 80.892,144.555C80.843,143.824 80.907,143.295 81.084,142.971C81.208,142.836 81.342,142.779 81.489,142.8C80.998,141.588 80.353,140.442 79.553,139.356C77.908,137.197 76.275,136.528 74.652,137.356Z" style="fill:rgb(155,100,84);fill-rule:nonzero;"/>
                    <path d="M82.143,127.531L73.532,147.747L75.245,149.236L82.951,129.369L82.143,127.531Z" style="fill:rgb(72,50,43);fill-rule:nonzero;"/>
                </g>
                <g transform="matrix(1,0,0,1,-2.81043,-8.60956)">
                    <g opacity="0.5098">
                        <path id="Ellipse11" d="M166.018,121.543C166.018,120.841 166.588,120.272 167.293,120.272C167.997,120.272 168.568,120.841 168.568,121.543C168.568,122.246 167.997,122.815 167.293,122.815C166.588,122.815 166.018,122.246 166.018,121.543Z" style="fill:rgb(155,100,84);fill-rule:nonzero;"/>
                        <path id="Ellipse12" d="M178.767,125.993C178.767,125.291 179.337,124.722 180.041,124.722C180.746,124.722 181.316,125.291 181.316,125.993C181.316,126.696 180.746,127.265 180.041,127.265C179.337,127.265 178.767,126.696 178.767,125.993Z" style="fill:rgb(155,100,84);fill-rule:nonzero;"/>
                        <path id="Ellipse13" d="M176.217,118.047C176.217,117.52 176.645,117.093 177.173,117.093C177.701,117.093 178.129,117.52 178.129,118.047C178.129,118.573 177.701,119 177.173,119C176.645,119 176.217,118.573 176.217,118.047Z" style="fill:rgb(155,100,84);fill-rule:nonzero;"/>
                    </g>
                </g>
                <g id="Ellipse14" transform="matrix(1,0,0,1,-2.81043,-8.60956)">
                    <path d="M76.52,109.334C76.067,107.83 86,95.403 96.628,92.242C107.787,88.924 118.261,92.889 118.714,94.543C119.165,96.194 109.273,94.291 97.946,97.501C87.162,100.558 76.972,110.836 76.52,109.334Z" style="fill:rgb(49,33,28);fill-rule:nonzero;"/>
                </g>
                <g transform="matrix(1,0,0,1,-2.81043,-8.60956)">
                    <g opacity="0.5098">
                        <path id="Ellipse15" d="M103.223,151.249C102.936,150.527 103.306,149.705 104.048,149.412C104.79,149.119 105.624,149.467 105.91,150.189C106.196,150.91 105.827,151.733 105.085,152.026C104.342,152.318 103.509,151.971 103.223,151.249Z" style="fill:rgb(155,100,84);fill-rule:nonzero;"/>
                        <path id="Ellipse16" d="M118.473,150.52C118.186,149.798 118.556,148.976 119.298,148.683C120.04,148.39 120.874,148.737 121.16,149.459C121.446,150.181 121.077,151.003 120.335,151.296C119.593,151.589 118.759,151.242 118.473,150.52Z" style="fill:rgb(155,100,84);fill-rule:nonzero;"/>
                        <path id="Ellipse17" d="M112.547,143.414C112.332,142.872 112.609,142.255 113.166,142.036C113.722,141.816 114.347,142.077 114.562,142.618C114.777,143.159 114.499,143.776 113.943,143.996C113.386,144.215 112.761,143.955 112.547,143.414Z" style="fill:rgb(155,100,84);fill-rule:nonzero;"/>
                    </g>
                </g>
                <g transform="matrix(1,0,0,1,-2.81043,-8.60956)">
                    <path d="M161.906,90.975C153.92,94.032 148.109,101.219 149.94,111.078C150.293,112.975 167.169,115.395 174.365,108.826C184.03,100.006 176.092,89.811 176.092,89.811C176.092,89.811 169.761,87.969 161.906,90.975Z" style="fill:rgb(155,100,84);fill-opacity:0.4902;fill-rule:nonzero;"/>
                    <path d="M148.046,111.241C148.046,111.241 146.025,96.811 155.604,89.553C166.979,80.935 178.338,87.172 178.338,87.172C178.338,87.172 174.43,92.856 172.858,93.615C171.285,94.375 160.428,89.912 155.63,95.4C150.83,100.893 148.046,111.241 148.046,111.241Z" style="fill-rule:nonzero;"/>
                    <path d="M159.7,91.963C151.713,95.02 145.902,102.206 147.734,112.066C148.086,113.963 164.962,116.382 172.159,109.814C181.823,100.994 173.885,90.799 173.885,90.799C173.885,90.799 167.554,88.957 159.7,91.963Z" style="fill:white;fill-rule:nonzero;"/>
                    <path d="M151.997,95.461C151.997,95.461 160.833,89.119 165.03,98.492C169.25,107.913 159.158,111.845 154.984,112.042C150.815,112.238 148.276,104.359 148.488,102.174C148.699,99.991 151.997,95.461 151.997,95.461Z" style="fill:rgb(28,16,11);fill-rule:nonzero;"/>
                    <path id="Ellipse18" d="M162.788,98.039C161.184,95.402 157.591,94.626 154.762,96.302C151.932,97.978 150.931,101.475 152.526,104.116C154.124,106.761 157.721,107.547 160.559,105.867C163.398,104.187 164.395,100.68 162.788,98.039Z" style="fill-rule:nonzero;"/>
                    <path id="Ellipse19" d="M165.702,95.036C164.631,93.28 162.35,92.695 160.608,93.726C158.865,94.758 158.318,97.019 159.386,98.777C160.455,100.537 162.738,101.127 164.484,100.093C166.23,99.059 166.776,96.794 165.702,95.036Z" style="fill:white;fill-rule:nonzero;"/>
                    <path id="Ellipse20" d="M156.407,103.443C156.007,102.782 155.153,102.56 154.499,102.948C153.845,103.335 153.638,104.185 154.039,104.845C154.438,105.507 155.292,105.729 155.946,105.341C156.601,104.954 156.807,104.104 156.407,103.443Z" style="fill:white;fill-rule:nonzero;"/>
                    <path d="M166.321,85.59L165.867,80.922L160.964,87.988L166.321,85.59Z" style="fill-rule:nonzero;"/>
                </g>
                <g transform="matrix(1,0,0,1,-2.81043,-8.60956)">
                    <g opacity="0.2706">
                        <path d="M92.361,84.317C92.361,84.317 113.325,96.184 134.289,99.01C155.253,101.835 169.984,101.27 169.984,101.27C169.984,101.27 109.358,95.619 98.026,79.796C86.695,63.974 92.361,84.317 92.361,84.317Z" style="fill-opacity:0.6588;fill-rule:nonzero;"/>
                        <path d="M91.794,84.882C83.26,104.472 90.094,143.653 90.094,143.653L88.996,143.782C88.996,143.782 80.676,115.105 88.394,78.101C91.337,77.085 90.959,81.725 91.794,84.882Z" style="fill-opacity:0.6588;fill-rule:nonzero;"/>
                    </g>
                </g>
                <g transform="matrix(1,0,0,1,-2.81043,-8.60956)">
                    <path d="M86.695,143.653C86.695,143.653 63.464,127.83 63.464,87.143C63.464,46.455 94.529,31.569 132.589,32.328C189.248,33.458 191.515,101.27 191.515,101.27C191.515,101.27 174.097,51.6 120.124,66.234C61.764,82.057 86.695,143.653 86.695,143.653Z" style="fill:rgb(72,50,43);fill-rule:nonzero;"/>
                </g>
                <g transform="matrix(1,0,0,1,-2.81043,-8.60956)">
                    <path d="M79.895,71.885C79.895,71.885 99.633,87.28 156.386,88.273C188.682,88.838 205.68,62.843 205.68,62.843C205.68,62.843 189.248,70.19 167.718,62.278C146.187,54.367 96.893,55.497 79.895,71.885Z" style="fill:rgb(72,50,43);fill-rule:nonzero;"/>
                </g>
                <g transform="matrix(1,0,0,1,-2.81043,-8.60956)">
                    <path d="M78.196,78.101C78.196,78.101 76.056,86.282 75.035,93.251C74.013,100.219 73.663,106.921 73.663,106.921C73.663,106.921 68.96,92.549 78.196,78.101Z" style="fill:rgb(114,79,66);fill-rule:nonzero;"/>
                </g>
                <g transform="matrix(1,0,0,1,-2.81043,-8.60956)">
                    <path id="Ellipse21" d="M121.534,148.584C121.534,148.213 122.134,147.912 122.875,147.912C123.615,147.912 124.216,148.213 124.216,148.584C124.216,148.955 123.615,149.256 122.875,149.256C122.134,149.256 121.534,148.955 121.534,148.584Z" style="fill:white;fill-rule:nonzero;"/>
                    <g>
                        <path d="M124.14,122.649C124.123,119.867 115.531,111.78 102.713,114.041C94.448,115.499 87.886,123.484 87.886,123.484C87.886,123.484 93.416,136.715 106.427,134.821C118.651,133.042 124.149,123.999 124.14,122.649Z" style="fill:rgb(155,100,84);fill-opacity:0.4902;fill-rule:nonzero;"/>
                        <path d="M127.6,122.249C127.6,122.249 122.303,109.688 113.716,109.407C97.21,108.866 84.662,122.091 84.662,122.091L94.305,123.863C94.305,123.863 109.945,110.233 117.214,115.048C124.441,119.835 127.6,122.249 127.6,122.249Z" style="fill-rule:nonzero;"/>
                        <path d="M126.645,122.091C126.628,119.309 118.035,111.222 105.217,113.483C96.953,114.941 90.391,122.925 90.391,122.925C90.391,122.925 95.92,136.157 108.932,134.263C121.156,132.484 126.653,123.441 126.645,122.091Z" style="fill:white;fill-rule:nonzero;"/>
                    </g>
                    <g>
                        <path id="Ellipse22" d="M113.521,120.939C113.333,116.775 110.168,111.823 105.667,111.988C101.137,112.154 95.158,116.402 97.117,121.633C98.604,125.602 101.125,129.128 105.684,128.91C110.213,128.692 113.709,125.118 113.521,120.939Z" style="fill:rgb(28,16,11);fill-rule:nonzero;"/>
                        <path id="Ellipse23" d="M110.569,117.169C109.031,115.102 106.03,114.767 103.858,116.43C101.675,118.1 101.156,121.149 102.708,123.233C104.26,125.317 107.283,125.632 109.452,123.945C111.61,122.267 112.106,119.236 110.569,117.169Z" style="fill-rule:nonzero;"/>
                        <path id="Ellipse24" d="M112.462,114.204C111.44,112.829 109.539,112.537 108.214,113.554C106.885,114.574 106.638,116.523 107.666,117.904C108.694,119.285 110.603,119.571 111.927,118.544C113.246,117.52 113.485,115.578 112.462,114.204Z" style="fill:white;fill-rule:nonzero;"/>
                        <path id="Ellipse25" d="M104.638,122.091C104.25,121.57 103.527,121.464 103.022,121.854C102.516,122.244 102.42,122.984 102.809,123.505C103.197,124.027 103.922,124.132 104.427,123.741C104.931,123.35 105.026,122.612 104.638,122.091Z" style="fill:white;fill-rule:nonzero;"/>
                    </g>
                    <path d="M98.538,114.255L94.512,111.409L102.183,111.483L98.538,114.255Z" style="fill-rule:nonzero;"/>
                </g>
                <g transform="matrix(1,0,0,1,-2.81043,-8.60956)">
                    <path d="M92.189,77.523C92.189,77.523 117.291,91.098 138.255,93.924C159.219,96.75 173.95,96.184 173.95,96.184C173.95,96.184 113.325,90.533 101.993,74.71C90.661,58.888 92.189,77.523 92.189,77.523Z" style="fill:rgb(72,50,43);fill-rule:nonzero;"/>
                </g>
                <g transform="matrix(1,0,0,1,-2.81043,-8.60956)">
                    <path d="M96.578,77.523C88.044,97.113 94.06,138.567 94.06,138.567L92.962,138.696C92.962,138.696 84.642,110.019 92.361,73.015C95.303,71.999 95.743,74.365 96.578,77.523Z" style="fill:rgb(72,50,43);fill-rule:nonzero;"/>
                </g>
                <g id="Ellipse26" transform="matrix(1,0,0,1,-2.81043,-8.60956)">
                    <path d="M140.937,125.183C140.937,123.623 142.206,122.358 143.77,122.358C145.335,122.358 146.603,123.623 146.603,125.183C146.603,126.744 145.335,128.009 143.77,128.009C142.206,128.009 140.937,126.744 140.937,125.183Z" style="fill:rgb(249,225,192);fill-rule:nonzero;"/>
                </g>
                <g transform="matrix(1,0,0,1,-2.81043,-8.60956)">
                    <path d="M180.595,111.097C180.612,111.553 180.999,111.911 181.457,111.893C181.916,111.876 182.275,111.491 182.258,111.034C182.241,110.58 181.853,110.222 181.394,110.239C180.936,110.256 180.577,110.642 180.595,111.097Z" style="fill:white;fill-rule:nonzero;"/>
                </g>
                <g transform="matrix(1,0,0,1,-2.81043,-8.60956)">
                    <path d="M96.88,140.819C96.897,141.276 97.282,141.631 97.742,141.614C98.201,141.597 98.562,141.212 98.544,140.756C98.527,140.3 98.138,139.943 97.679,139.961C97.219,139.978 96.863,140.363 96.88,140.819Z" style="fill:white;fill-rule:nonzero;"/>
                </g>
                <g transform="matrix(1,0,0,1,-2.81043,-8.60956)">
                    <path d="M101.993,70.755C101.993,70.755 115.198,77.653 148.573,79.611C167.323,80.711 186.415,77.536 186.415,77.536C186.415,77.536 118.235,76.257 101.993,70.755Z" style="fill:rgb(114,79,66);fill-rule:nonzero;"/>
                </g>
                <g transform="matrix(1,0,0,1,-2.81043,-8.60956)">
                    <path d="M148.453,37.979C145.093,37.466 152.692,42.773 149.02,45.89C145.348,49.008 140.164,48.724 137.688,51.541C135.213,54.359 144.455,57.234 136.555,61.148C128.655,65.062 112.138,64.856 114.458,66.799C124.628,75.318 172.321,75.431 180.75,65.104C160.281,68.706 140.469,58.301 146.187,56.627C151.906,54.954 161.763,54.252 159.219,49.846C156.675,45.44 155.857,39.11 148.453,37.979Z" style="fill:rgb(114,79,66);fill-rule:nonzero;"/>
                </g>
                <g transform="matrix(1,0,0,1,-2.81043,-8.60956)">
                    <path d="M128,40.684C128,40.684 148.825,38.134 158.086,44.76C167.347,51.386 175.083,61.148 175.083,61.148C175.083,61.148 148.569,42.65 137.688,41.37C126.807,40.089 125.223,48.151 125.223,48.151C125.223,48.151 166.167,64.205 175.097,64.317C182.698,64.413 134.725,58.06 121.824,53.237C108.922,48.413 128,40.684 128,40.684Z" style="fill:rgb(72,50,43);fill-rule:nonzero;"/>
                </g>
                <g transform="matrix(1,0,0,1,-2.81043,-8.60956)">
                    <path d="M64.597,75.276C59.804,73.54 58.928,76.131 50.736,77.893C42.544,79.655 41.982,84.647 44.178,88.595C46.465,92.707 54.758,90.066 55.864,94.792C56.969,99.517 55.596,110.823 59.441,109.656C63.286,108.49 68.653,76.745 64.597,75.276Z" style="fill:rgb(114,79,66);fill-rule:nonzero;"/>
                </g>
                <g transform="matrix(1,0,0,1,-2.81043,-8.60956)">
                    <path d="M60.065,71.32C60.065,71.32 51.978,96.987 52.132,101.835C52.287,106.684 46.381,86.497 60.065,71.32Z" style="fill:rgb(72,50,43);fill-rule:nonzero;"/>
                </g>
                <g transform="matrix(1,0,0,1,-2.81043,-8.60956)">
                    <path d="M45.17,128.307C45.17,128.307 44.499,133.66 39.132,139.014C34.187,143.946 28.583,145.371 28.583,145.371C28.583,145.371 45.707,145.297 45.17,128.307Z" style="fill:rgb(114,79,66);fill-rule:nonzero;"/>
                </g>
                <g id="Ellipse27" transform="matrix(1,0,0,1,-2.81043,-8.60956)">
                    <path d="M147.887,157.498C147.887,157.03 148.267,156.65 148.737,156.65C149.206,156.65 149.587,157.03 149.587,157.498C149.587,157.966 149.206,158.345 148.737,158.345C148.267,158.345 147.887,157.966 147.887,157.498Z" style="fill:rgb(252,171,197);fill-rule:nonzero;"/>
                </g>
                <g id="Ellipse28" transform="matrix(1,0,0,1,-2.81043,-8.60956)">
                    <path d="M156.952,141.675C156.952,141.207 157.333,140.827 157.802,140.827C158.272,140.827 158.652,141.207 158.652,141.675C158.652,142.143 158.272,142.523 157.802,142.523C157.333,142.523 156.952,142.143 156.952,141.675Z" style="fill:rgb(252,171,197);fill-rule:nonzero;"/>
                </g>
                <g transform="matrix(1,0,0,1,-2.81043,-8.60956)">
                    <path d="M160.919,141.392C160.65,139.719 154.661,140.654 152.961,143.48C151.262,146.305 161.485,144.924 160.919,141.392Z" style="fill:rgb(252,171,197);fill-opacity:0.4118;fill-rule:nonzero;"/>
                </g>
                <g transform="matrix(1,0,0,1,-2.81043,-8.60956)">
                    <path d="M87.684,34.55C66.765,27.327 44.533,38.112 42.127,43.728C42.127,43.728 50.896,35.933 66.502,35.146C57.743,39.133 37.339,46.119 33.82,67.827C30.301,89.535 33.82,96.423 33.82,96.423C33.82,96.423 31.049,63.231 46.076,55.572C61.103,47.912 67.864,50.125 67.864,50.125C67.864,50.125 55.298,58.308 54.246,61.019C53.194,63.729 68.818,57.866 68.818,57.866C68.818,57.866 76.982,40.157 87.684,34.55Z" style="fill:rgb(53,37,31);fill-rule:nonzero;"/>
                </g>
                <g transform="matrix(1,0,0,1,-2.81043,-8.60956)">
                    <path d="M102.472,36.917C102.472,36.917 98.451,29.71 87.388,31.941C70.472,35.352 68.406,62.018 68.406,62.018L102.472,36.917Z" style="fill:rgb(94,157,189);fill-rule:nonzero;"/>
                </g>
                <g transform="matrix(1,0,0,1,-2.81043,-8.60956)">
                    <path d="M102.001,35.187C102.001,35.187 117.318,31.316 128.062,32.124C138.805,32.933 104.489,33.69 107.354,40.593C110.219,47.496 109.62,46.718 106.889,51.658C104.159,56.599 87.814,55.811 89.651,61.019C91.488,66.226 107.973,70.974 103.269,74.636C98.564,78.297 79.953,67.798 77.396,70.551C74.839,73.302 73.412,93.059 70.587,92.338C67.763,91.617 69.82,74.494 66.502,73.274C63.184,72.054 67.801,59.267 72.052,55.657C75.41,51.196 87.748,37.101 102.001,35.187Z" style="fill:rgb(53,37,31);fill-rule:nonzero;"/>
                </g>
                <g transform="matrix(1,0,0,1,-2.81043,-8.60956)">
                    <path d="M113.711,67.204C113.711,67.204 143.345,74.268 165.909,71.912C188.473,69.556 204.037,63.742 204.037,63.742C204.037,63.742 162.193,89.92 113.711,67.204Z" style="fill:rgb(53,37,31);fill-rule:nonzero;"/>
                </g>
                <g transform="matrix(1,0,0,1,-2.81043,-8.60956)">
                    <path d="M59.936,70.653C59.936,70.653 43.346,89.754 47.437,110.04C51.529,130.326 64.064,135.315 71.949,156.338C79.834,177.36 81.481,195.827 81.481,195.827C81.481,195.827 80.297,159.956 71.949,146.806C63.6,133.656 48.193,117.609 49.864,100.357C51.536,83.106 54.884,79.588 59.936,70.653Z" style="fill:rgb(53,37,31);fill-rule:nonzero;"/>
                </g>
                <g transform="matrix(1,0,0,1,-2.81043,-8.60956)">
                    <path d="M36.544,110.04C36.544,110.04 42.56,129.654 35.182,137.274C27.803,144.894 18.841,146.806 18.841,146.806C18.841,146.806 55.274,144.28 36.544,110.04Z" style="fill:rgb(53,37,31);fill-rule:nonzero;"/>
                </g>
                <g transform="matrix(1,0,0,1,-2.81043,-8.60956)">
                    <path d="M186.335,156.338C186.335,156.338 192.773,182.292 205.399,183.572C218.026,184.852 223.102,182.21 223.102,182.21C223.102,182.21 191.273,201.913 186.335,156.338Z" style="fill:rgb(53,37,31);fill-rule:nonzero;"/>
                </g>
                <g transform="matrix(1,0,0,1,-2.81043,-8.60956)">
                    <path d="M171.356,169.955C171.356,169.955 175.194,183.802 182.25,187.657C189.305,191.512 195.867,193.104 195.867,193.104C195.867,193.104 166.31,198.346 171.356,169.955Z" style="fill:rgb(53,37,31);fill-rule:nonzero;"/>
                </g>
                <g transform="matrix(1,0,0,1,-2.81043,-8.60956)">
                    <path d="M84.204,169.955C84.204,169.955 88.6,203.723 101.907,214.891C115.214,226.059 134.589,225.785 134.589,225.785C134.589,225.785 90.656,243.715 84.204,169.955Z" style="fill:rgb(53,37,31);fill-rule:nonzero;"/>
                </g>
            </g>
        </g>
    </g>
    <defs>
        <linearGradient id="_Linear1" x1="0" y1="0" x2="1" y2="0" gradientUnits="userSpaceOnUse" gradientTransform="matrix(1.45082e-14,236.937,-236.937,1.45082e-14,118.998,0.491526)"><stop offset="0" style="stop-color:rgb(223,133,143);stop-opacity:1"/><stop offset="0.09" style="stop-color:rgb(223,133,143);stop-opacity:1"/><stop offset="0.99" style="stop-color:rgb(195,98,106);stop-opacity:1"/><stop offset="1" style="stop-color:rgb(195,98,106);stop-opacity:1"/></linearGradient>
    </defs>
</svg>
